<svg xmlns="http://www.w3.org/2000/svg" width="900" height="700" viewBox="0 0 900 700" role="img" aria-label="REFINERIES (placeholder)">
  <defs>
    <linearGradient id="bg" x1="0" y1="0" x2="1" y2="1">
      <stop offset="0" stop-color="#0A1C26"/>
      <stop offset="0.6" stop-color="#0E2533"/>
      <stop offset="1" stop-color="#06141c"/>
    </linearGradient>
    <linearGradient id="fade" x1="0" y1="0" x2="0" y2="1">
      <stop offset="0" stop-color="rgba(10,28,38,0)"/>
      <stop offset="1" stop-color="rgba(10,28,38,0.65)"/>
    </linearGradient>
  </defs>
  <rect width="900" height="700" fill="url(#bg)"/>
  <line x1="0" y1="0" x2="0" y2="700" stroke="rgba(46,163,163,0.10)" stroke-width="1"/>
<line x1="44" y1="0" x2="44" y2="700" stroke="rgba(46,163,163,0.10)" stroke-width="1"/>
<line x1="88" y1="0" x2="88" y2="700" stroke="rgba(46,163,163,0.10)" stroke-width="1"/>
<line x1="132" y1="0" x2="132" y2="700" stroke="rgba(46,163,163,0.10)" stroke-width="1"/>
<line x1="176" y1="0" x2="176" y2="700" stroke="rgba(46,163,163,0.10)" stroke-width="1"/>
<line x1="220" y1="0" x2="220" y2="700" stroke="rgba(46,163,163,0.10)" stroke-width="1"/>
<line x1="264" y1="0" x2="264" y2="700" stroke="rgba(46,163,163,0.10)" stroke-width="1"/>
<line x1="308" y1="0" x2="308" y2="700" stroke="rgba(46,163,163,0.10)" stroke-width="1"/>
<line x1="352" y1="0" x2="352" y2="700" stroke="rgba(46,163,163,0.10)" stroke-width="1"/>
<line x1="396" y1="0" x2="396" y2="700" stroke="rgba(46,163,163,0.10)" stroke-width="1"/>
<line x1="440" y1="0" x2="440" y2="700" stroke="rgba(46,163,163,0.10)" stroke-width="1"/>
<line x1="484" y1="0" x2="484" y2="700" stroke="rgba(46,163,163,0.10)" stroke-width="1"/>
<line x1="528" y1="0" x2="528" y2="700" stroke="rgba(46,163,163,0.10)" stroke-width="1"/>
<line x1="572" y1="0" x2="572" y2="700" stroke="rgba(46,163,163,0.10)" stroke-width="1"/>
<line x1="616" y1="0" x2="616" y2="700" stroke="rgba(46,163,163,0.10)" stroke-width="1"/>
<line x1="660" y1="0" x2="660" y2="700" stroke="rgba(46,163,163,0.10)" stroke-width="1"/>
<line x1="704" y1="0" x2="704" y2="700" stroke="rgba(46,163,163,0.10)" stroke-width="1"/>
<line x1="748" y1="0" x2="748" y2="700" stroke="rgba(46,163,163,0.10)" stroke-width="1"/>
<line x1="792" y1="0" x2="792" y2="700" stroke="rgba(46,163,163,0.10)" stroke-width="1"/>
<line x1="836" y1="0" x2="836" y2="700" stroke="rgba(46,163,163,0.10)" stroke-width="1"/>
<line x1="880" y1="0" x2="880" y2="700" stroke="rgba(46,163,163,0.10)" stroke-width="1"/>
<line x1="0" y1="0" x2="900" y2="0" stroke="rgba(46,163,163,0.10)" stroke-width="1"/>
<line x1="0" y1="44" x2="900" y2="44" stroke="rgba(46,163,163,0.10)" stroke-width="1"/>
<line x1="0" y1="88" x2="900" y2="88" stroke="rgba(46,163,163,0.10)" stroke-width="1"/>
<line x1="0" y1="132" x2="900" y2="132" stroke="rgba(46,163,163,0.10)" stroke-width="1"/>
<line x1="0" y1="176" x2="900" y2="176" stroke="rgba(46,163,163,0.10)" stroke-width="1"/>
<line x1="0" y1="220" x2="900" y2="220" stroke="rgba(46,163,163,0.10)" stroke-width="1"/>
<line x1="0" y1="264" x2="900" y2="264" stroke="rgba(46,163,163,0.10)" stroke-width="1"/>
<line x1="0" y1="308" x2="900" y2="308" stroke="rgba(46,163,163,0.10)" stroke-width="1"/>
<line x1="0" y1="352" x2="900" y2="352" stroke="rgba(46,163,163,0.10)" stroke-width="1"/>
<line x1="0" y1="396" x2="900" y2="396" stroke="rgba(46,163,163,0.10)" stroke-width="1"/>
<line x1="0" y1="440" x2="900" y2="440" stroke="rgba(46,163,163,0.10)" stroke-width="1"/>
<line x1="0" y1="484" x2="900" y2="484" stroke="rgba(46,163,163,0.10)" stroke-width="1"/>
<line x1="0" y1="528" x2="900" y2="528" stroke="rgba(46,163,163,0.10)" stroke-width="1"/>
<line x1="0" y1="572" x2="900" y2="572" stroke="rgba(46,163,163,0.10)" stroke-width="1"/>
<line x1="0" y1="616" x2="900" y2="616" stroke="rgba(46,163,163,0.10)" stroke-width="1"/>
<line x1="0" y1="660" x2="900" y2="660" stroke="rgba(46,163,163,0.10)" stroke-width="1"/>
  <rect x="92" y="354" width="33" height="346" fill="none" stroke="#8A99A6" stroke-width="1.5" opacity="0.55"/>
<line x1="92" y1="374" x2="124" y2="374" stroke="#8A99A6" stroke-width="1" opacity="0.4"/>
<line x1="92" y1="408" x2="124" y2="408" stroke="#8A99A6" stroke-width="1" opacity="0.4"/>
<line x1="92" y1="442" x2="124" y2="442" stroke="#8A99A6" stroke-width="1" opacity="0.4"/>
<line x1="92" y1="476" x2="124" y2="476" stroke="#8A99A6" stroke-width="1" opacity="0.4"/>
<line x1="92" y1="510" x2="124" y2="510" stroke="#8A99A6" stroke-width="1" opacity="0.4"/>
<line x1="92" y1="544" x2="124" y2="544" stroke="#8A99A6" stroke-width="1" opacity="0.4"/>
<line x1="92" y1="578" x2="124" y2="578" stroke="#8A99A6" stroke-width="1" opacity="0.4"/>
<line x1="92" y1="612" x2="124" y2="612" stroke="#8A99A6" stroke-width="1" opacity="0.4"/>
<line x1="92" y1="646" x2="124" y2="646" stroke="#8A99A6" stroke-width="1" opacity="0.4"/>
<line x1="92" y1="680" x2="124" y2="680" stroke="#8A99A6" stroke-width="1" opacity="0.4"/>
<line x1="108" y1="354" x2="108" y2="324" stroke="#2EA3A3" stroke-width="2" opacity="0.6"/>
<rect x="216" y="178" width="37" height="522" fill="none" stroke="#8A99A6" stroke-width="1.5" opacity="0.55"/>
<line x1="216" y1="198" x2="252" y2="198" stroke="#8A99A6" stroke-width="1" opacity="0.4"/>
<line x1="216" y1="232" x2="252" y2="232" stroke="#8A99A6" stroke-width="1" opacity="0.4"/>
<line x1="216" y1="266" x2="252" y2="266" stroke="#8A99A6" stroke-width="1" opacity="0.4"/>
<line x1="216" y1="300" x2="252" y2="300" stroke="#8A99A6" stroke-width="1" opacity="0.4"/>
<line x1="216" y1="334" x2="252" y2="334" stroke="#8A99A6" stroke-width="1" opacity="0.4"/>
<line x1="216" y1="368" x2="252" y2="368" stroke="#8A99A6" stroke-width="1" opacity="0.4"/>
<line x1="216" y1="402" x2="252" y2="402" stroke="#8A99A6" stroke-width="1" opacity="0.4"/>
<line x1="216" y1="436" x2="252" y2="436" stroke="#8A99A6" stroke-width="1" opacity="0.4"/>
<line x1="216" y1="470" x2="252" y2="470" stroke="#8A99A6" stroke-width="1" opacity="0.4"/>
<line x1="216" y1="504" x2="252" y2="504" stroke="#8A99A6" stroke-width="1" opacity="0.4"/>
<line x1="216" y1="538" x2="252" y2="538" stroke="#8A99A6" stroke-width="1" opacity="0.4"/>
<line x1="216" y1="572" x2="252" y2="572" stroke="#8A99A6" stroke-width="1" opacity="0.4"/>
<line x1="216" y1="606" x2="252" y2="606" stroke="#8A99A6" stroke-width="1" opacity="0.4"/>
<line x1="216" y1="640" x2="252" y2="640" stroke="#8A99A6" stroke-width="1" opacity="0.4"/>
<line x1="216" y1="674" x2="252" y2="674" stroke="#8A99A6" stroke-width="1" opacity="0.4"/>
<line x1="234" y1="178" x2="234" y2="148" stroke="#2EA3A3" stroke-width="2" opacity="0.6"/>
<rect x="373" y="387" width="46" height="313" fill="none" stroke="#8A99A6" stroke-width="1.5" opacity="0.55"/>
<line x1="373" y1="407" x2="419" y2="407" stroke="#8A99A6" stroke-width="1" opacity="0.4"/>
<line x1="373" y1="441" x2="419" y2="441" stroke="#8A99A6" stroke-width="1" opacity="0.4"/>
<line x1="373" y1="475" x2="419" y2="475" stroke="#8A99A6" stroke-width="1" opacity="0.4"/>
<line x1="373" y1="509" x2="419" y2="509" stroke="#8A99A6" stroke-width="1" opacity="0.4"/>
<line x1="373" y1="543" x2="419" y2="543" stroke="#8A99A6" stroke-width="1" opacity="0.4"/>
<line x1="373" y1="577" x2="419" y2="577" stroke="#8A99A6" stroke-width="1" opacity="0.4"/>
<line x1="373" y1="611" x2="419" y2="611" stroke="#8A99A6" stroke-width="1" opacity="0.4"/>
<line x1="373" y1="645" x2="419" y2="645" stroke="#8A99A6" stroke-width="1" opacity="0.4"/>
<line x1="373" y1="679" x2="419" y2="679" stroke="#8A99A6" stroke-width="1" opacity="0.4"/>
<line x1="396" y1="387" x2="396" y2="357" stroke="#2EA3A3" stroke-width="2" opacity="0.6"/>
<rect x="536" y="414" width="45" height="286" fill="none" stroke="#8A99A6" stroke-width="1.5" opacity="0.55"/>
<line x1="536" y1="434" x2="580" y2="434" stroke="#8A99A6" stroke-width="1" opacity="0.4"/>
<line x1="536" y1="468" x2="580" y2="468" stroke="#8A99A6" stroke-width="1" opacity="0.4"/>
<line x1="536" y1="502" x2="580" y2="502" stroke="#8A99A6" stroke-width="1" opacity="0.4"/>
<line x1="536" y1="536" x2="580" y2="536" stroke="#8A99A6" stroke-width="1" opacity="0.4"/>
<line x1="536" y1="570" x2="580" y2="570" stroke="#8A99A6" stroke-width="1" opacity="0.4"/>
<line x1="536" y1="604" x2="580" y2="604" stroke="#8A99A6" stroke-width="1" opacity="0.4"/>
<line x1="536" y1="638" x2="580" y2="638" stroke="#8A99A6" stroke-width="1" opacity="0.4"/>
<line x1="536" y1="672" x2="580" y2="672" stroke="#8A99A6" stroke-width="1" opacity="0.4"/>
<line x1="558" y1="414" x2="558" y2="384" stroke="#2EA3A3" stroke-width="2" opacity="0.6"/>
<rect x="676" y="180" width="52" height="520" fill="none" stroke="#8A99A6" stroke-width="1.5" opacity="0.55"/>
<line x1="676" y1="200" x2="728" y2="200" stroke="#8A99A6" stroke-width="1" opacity="0.4"/>
<line x1="676" y1="234" x2="728" y2="234" stroke="#8A99A6" stroke-width="1" opacity="0.4"/>
<line x1="676" y1="268" x2="728" y2="268" stroke="#8A99A6" stroke-width="1" opacity="0.4"/>
<line x1="676" y1="302" x2="728" y2="302" stroke="#8A99A6" stroke-width="1" opacity="0.4"/>
<line x1="676" y1="336" x2="728" y2="336" stroke="#8A99A6" stroke-width="1" opacity="0.4"/>
<line x1="676" y1="370" x2="728" y2="370" stroke="#8A99A6" stroke-width="1" opacity="0.4"/>
<line x1="676" y1="404" x2="728" y2="404" stroke="#8A99A6" stroke-width="1" opacity="0.4"/>
<line x1="676" y1="438" x2="728" y2="438" stroke="#8A99A6" stroke-width="1" opacity="0.4"/>
<line x1="676" y1="472" x2="728" y2="472" stroke="#8A99A6" stroke-width="1" opacity="0.4"/>
<line x1="676" y1="506" x2="728" y2="506" stroke="#8A99A6" stroke-width="1" opacity="0.4"/>
<line x1="676" y1="540" x2="728" y2="540" stroke="#8A99A6" stroke-width="1" opacity="0.4"/>
<line x1="676" y1="574" x2="728" y2="574" stroke="#8A99A6" stroke-width="1" opacity="0.4"/>
<line x1="676" y1="608" x2="728" y2="608" stroke="#8A99A6" stroke-width="1" opacity="0.4"/>
<line x1="676" y1="642" x2="728" y2="642" stroke="#8A99A6" stroke-width="1" opacity="0.4"/>
<line x1="676" y1="676" x2="728" y2="676" stroke="#8A99A6" stroke-width="1" opacity="0.4"/>
<line x1="702" y1="180" x2="702" y2="150" stroke="#2EA3A3" stroke-width="2" opacity="0.6"/>
<rect x="793" y="301" width="34" height="399" fill="none" stroke="#8A99A6" stroke-width="1.5" opacity="0.55"/>
<line x1="793" y1="321" x2="827" y2="321" stroke="#8A99A6" stroke-width="1" opacity="0.4"/>
<line x1="793" y1="355" x2="827" y2="355" stroke="#8A99A6" stroke-width="1" opacity="0.4"/>
<line x1="793" y1="389" x2="827" y2="389" stroke="#8A99A6" stroke-width="1" opacity="0.4"/>
<line x1="793" y1="423" x2="827" y2="423" stroke="#8A99A6" stroke-width="1" opacity="0.4"/>
<line x1="793" y1="457" x2="827" y2="457" stroke="#8A99A6" stroke-width="1" opacity="0.4"/>
<line x1="793" y1="491" x2="827" y2="491" stroke="#8A99A6" stroke-width="1" opacity="0.4"/>
<line x1="793" y1="525" x2="827" y2="525" stroke="#8A99A6" stroke-width="1" opacity="0.4"/>
<line x1="793" y1="559" x2="827" y2="559" stroke="#8A99A6" stroke-width="1" opacity="0.4"/>
<line x1="793" y1="593" x2="827" y2="593" stroke="#8A99A6" stroke-width="1" opacity="0.4"/>
<line x1="793" y1="627" x2="827" y2="627" stroke="#8A99A6" stroke-width="1" opacity="0.4"/>
<line x1="793" y1="661" x2="827" y2="661" stroke="#8A99A6" stroke-width="1" opacity="0.4"/>
<line x1="793" y1="695" x2="827" y2="695" stroke="#8A99A6" stroke-width="1" opacity="0.4"/>
<line x1="810" y1="301" x2="810" y2="271" stroke="#2EA3A3" stroke-width="2" opacity="0.6"/>
<line x1="0" y1="385" x2="900" y2="385" stroke="#1A56DB" stroke-width="2" opacity="0.3"/>
<line x1="0" y1="476" x2="900" y2="476" stroke="#1A56DB" stroke-width="2" opacity="0.3"/>
<line x1="0" y1="560" x2="900" y2="560" stroke="#1A56DB" stroke-width="2" opacity="0.3"/>
  <rect width="900" height="700" fill="url(#fade)"/>
  <!-- corner ticks -->
  <path d="M20 20 h28 M20 20 v28" stroke="#2EA3A3" stroke-width="2" fill="none"/>
  <path d="M880 680 h-28 M880 680 v-28" stroke="#2EA3A3" stroke-width="2" fill="none"/>
  <text x="28" y="654" font-family="monospace" font-size="13" fill="#2EA3A3" letter-spacing="3">SECTOR</text>
  <text x="28" y="676" font-family="Arial, sans-serif" font-weight="800" font-size="20" fill="#fff" letter-spacing="1">REFINERIES</text>
  <text x="28" y="30" font-family="monospace" font-size="11" fill="#8A99A6" letter-spacing="2" opacity="0.55">PLACEHOLDER · SWAP REAL PHOTO</text>
</svg>